<svg width="657" height="307" viewBox="0 0 657 307" fill="none" xmlns="http://www.w3.org/2000/svg">
<g opacity="0.91" clip-path="url(#clip0_387_74)">
<path d="M490.413 298.006H401.595L338.791 229.091L329.151 218.509L263.717 146.701L329.213 74.8218L334.585 68.9214L397.387 0H486.201L352.522 146.701H352.535L373.554 169.775L427.611 229.091L490.413 298.006Z" fill="white"/>
<path d="M657 104.573V193.411C657 251.183 614.329 297.985 561.692 297.985H518.482L455.685 229.091H549.849C552.728 229.433 555.636 229.433 558.514 229.091C576.703 226.972 591.3 211.654 594.197 192.019C594.395 190.698 594.544 189.354 594.627 187.983C594.695 186.951 594.728 185.904 594.728 184.853C594.728 183.8 594.695 182.774 594.627 181.721C594.544 180.337 594.395 179.014 594.197 177.692V120.585C594.906 115.836 594.906 111.005 594.197 106.256C591.075 85.0852 574.344 68.9214 554.178 68.9214H547.122C545.908 68.8174 544.695 68.7689 543.461 68.7689C542.227 68.7689 541.013 68.8174 539.8 68.9214H451.322L514.153 0H561.692C614.329 0 657 46.8294 657 104.573Z" fill="white"/>
<path d="M373.2 298.006H284.394L275.715 288.491L254.683 265.415L221.571 229.091L190.891 195.455L146.482 146.721L190.87 98.0148L197.879 90.3277C198.296 89.935 198.682 89.5088 199.032 89.0534C200.828 86.7764 201.804 83.9446 201.799 81.0269C201.799 74.9048 197.708 69.8285 192.364 68.9214C191.219 68.7181 190.046 68.7181 188.901 68.9214H62.776V298.006L35.7375 268.31L0 229.091V0H342.289C348.424 0 353.456 5.4849 353.456 12.251C353.466 14.8109 352.725 17.3157 351.328 19.4464L320.206 53.5955L306.237 68.9214L299.12 76.7401L254.71 125.474L235.362 146.701H235.322L320.125 239.763L373.2 298.006Z" fill="white"/>
</g>
<defs>
<clipPath id="clip0_387_74">
<rect width="657" height="307" fill="white"/>
</clipPath>
</defs>
</svg>
